<svg xmlns="http://www.w3.org/2000/svg" viewBox="0 0 171.107 190.75"><g data-name="Layer 2"><g data-name="ART"><path fill="#fff" d="M2.181 2.181h127.796v161.043H2.181z"/><path fill="#ecedee" d="M2.181 163.224h127.796v-12.698L2.181 89.048v74.176z"/><path d="M131.158 165.405H1a1 1 0 01-1-1V1a1 1 0 011-1h130.158a1 1 0 011 1v163.405a1 1 0 01-1 1zM2 163.405h128.158V2H2z" fill="#3e4147"/><path d="M38.49 22.638a1.533 1.533 0 01-.317-1.15v-.158l.158-.12a5.26 5.26 0 012.893-.633c.436 0 .872.04 1.387.04.476.04.991.04 1.467.04 2.14 0 4.715.078 6.578.237h.356c.357 0 .753 0 1.229-.04s.99-.08 1.466-.08c1.03 0 1.664.16 1.981.556a1.078 1.078 0 01.278.793c0 .316-.198.792-1.03 1.03a7.05 7.05 0 01-1.823.198c-1.03 0-2.18-.12-3.131-.198a7.89 7.89 0 00-.872-.08c-.04 2.22 0 4.439.08 6.777.118 3.408.197 6.895.039 10.739-.04.317-.08.634-.119.99a16.539 16.539 0 00-.119 3.448v.04a8.931 8.931 0 00.04.99c.04 1.387.119 2.972-.515 3.646a1 1 0 01-.793.357 2.307 2.307 0 01-.792-.199l-.159-.079-.04-.198a18.772 18.772 0 01-.356-6.34l.04-.317c0-.951.04-1.903.079-2.893a141.886 141.886 0 00-.08-16.92c-.713-.04-1.624-.08-2.734-.08h-1.466c-.198.04-.357.04-.555.08-.475.039-.95.078-1.387.078a2.521 2.521 0 01-1.783-.554zM56.365 49.663a2.893 2.893 0 010-2.298 4.032 4.032 0 00.119-.476v-.079c1.149-4.755 2.496-9.59 3.804-14.266 1.07-3.725 2.14-7.568 3.051-11.254l.04-.158.158-.12a1.932 1.932 0 01.872-.237c.555 0 .951.317 1.189 1.03a7.638 7.638 0 01.357 1.704 3.071 3.071 0 00.079.634c.713 2.299 1.426 4.597 2.06 6.816 1.189 4.042 2.338 7.807 3.606 11.294l.04.04v.039a9.713 9.713 0 001.229 3.13 8.22 8.22 0 01.99 3.766v.158l-.119.119a1.517 1.517 0 01-.99.515c-.951 0-1.348-1.308-1.625-2.259a3.164 3.164 0 00-.238-.674v-.04h-.04c-.594-1.822-1.426-3.882-2.258-5.903-.674-1.625-1.268-3.131-1.665-4.28a7.629 7.629 0 00-1.783-.198 21.555 21.555 0 00-2.298.158c-.476.04-.912.08-1.268.119a52.214 52.214 0 00-1.783 5.627c-.397 1.387-.793 2.853-1.308 4.399a8.309 8.309 0 01-.119 1.545c-.238 1.268-.792 1.546-1.228 1.546a1.063 1.063 0 01-.872-.397zm7.133-15.137c.515-.04.99-.08 1.505-.08.436 0 .872.04 1.348.08-.12-.476-.198-.951-.317-1.427a30.274 30.274 0 00-1.665-6.221 27.23 27.23 0 01-1.109 3.844 32.934 32.934 0 00-1.11 3.922c.476-.039.912-.079 1.348-.118zM74.912 23.668a3.131 3.131 0 01-1.11-2.814l.04-.198.159-.079a2.125 2.125 0 01.832-.198c1.189 0 1.902 1.11 2.536 2.1a5.626 5.626 0 00.475.713v.04c1.506 2.22 3.25 4.954 4.637 7.172.04.08.119.199.158.278a45.886 45.886 0 002.18-4.676 29.14 29.14 0 013.447-6.736l.12-.199.237.04c.793.079 1.268.317 1.466.753.357.634-.119 1.427-.555 2.14a.858.858 0 01-.118.198 27.928 27.928 0 00-1.348 3.09c-.356.912-.713 1.823-1.149 2.735-.198.396-.396.753-.555 1.07a13.022 13.022 0 00-.832 1.664v.04a.797.797 0 00-.158.317 12.806 12.806 0 00-.991 2.378c0 .753 1.07 2.218 1.783 3.17.238.277.436.554.594.752v.04a199.748 199.748 0 013.29 5.112c.99 1.664 1.941 3.21 3.17 5.033a.666.666 0 00.238.237c.435.476 1.149 1.308.475 2.26l-.08.078-.078.04a2.319 2.319 0 01-.714.158c-1.307 0-2.338-1.624-3.17-2.932a5.635 5.635 0 00-.436-.713c-1.11-1.585-2.18-3.368-3.25-5.112-1.07-1.823-2.1-3.566-3.17-5.033a91.895 91.895 0 00-4.041 8.956c-.12.317-.277.674-.397.99a8.843 8.843 0 00-.317.952c-.396 1.228-.872 2.774-2.06 2.774a1.977 1.977 0 01-1.11-.436l-.158-.119v-.159l-.198-.079.118-.357a121.58 121.58 0 016.5-15.375c-.714-1.11-1.387-2.258-2.061-3.408-1.19-1.981-2.378-4.002-3.804-5.944a4.73 4.73 0 00-.595-.713zM112.33 70.813H19.828a1 1 0 010-2h92.502a1 1 0 010 2zM112.33 85.246H19.828a1 1 0 010-2h92.502a1 1 0 010 2zM112.33 99.679H19.828a1 1 0 010-2h92.502a1 1 0 010 2zM112.33 114.112H19.828a1 1 0 010-2h92.502a1 1 0 010 2zM112.33 128.545H19.828a1 1 0 110-2h92.502a1 1 0 010 2zM112.33 142.978H19.828a1 1 0 110-2h92.502a1 1 0 010 2z" fill="#3e4147"/><path d="M94.44 103.35l-.082.177a14.542 14.542 0 00-.494 10.89 13.807 13.807 0 007.288 8.025 14.47 14.47 0 0019.02-7.248A14.294 14.294 0 00113.46 96.1a14.472 14.472 0 00-19.02 7.25zm19.683 4.137a6.455 6.455 0 011.011 3.978c.354.189.717.37 1.067.56a.64.64 0 01.291.82.518.518 0 01-.024.049.655.655 0 01-.889.234c-.226-.124-.463-.24-.69-.363-.043.127-.079.259-.131.377l-.017.037a6.042 6.042 0 01-.37.634c.15.06.303.124.452.175a.649.649 0 01.424.81.676.676 0 01-.023.058.647.647 0 01-.803.33 13.11 13.11 0 01-.847-.325 5.306 5.306 0 01-2.361 1.504 4.272 4.272 0 01-3.504-.546.637.637 0 01-.21-.881.66.66 0 01.904-.179 2.907 2.907 0 002.414.384 3.901 3.901 0 001.508-.86 61.651 61.651 0 01-1.52-.79c-.691-.368-1.38-.735-2.06-1.05-.654-.303-1.443-.67-2.292-1.069l-.012.015c-2.357 2.454-4.042 1.873-4.836 1.309a5.737 5.737 0 01-1.881-4.498c-1.311-.62-2.208-1.047-2.208-1.047l.55-1.139 1.733.822a6.55 6.55 0 01.291-1.211l-1.541-.707a.642.642 0 01-.335-.841l.003-.007a.651.651 0 01.866-.297l1.582.724a2.9 2.9 0 013.723-.937.645.645 0 01.374.833.635.635 0 01-.85.339 1.63 1.63 0 00-2.007.334c1.876.858 3.772 1.734 5.664 2.626a4.379 4.379 0 013.45-1.847 3.616 3.616 0 013.104 1.642z" fill="#b5c933"/><path d="M108.8 108.27q2.55 1.218 5.03 2.51a4.945 4.945 0 00-.786-2.601 2.285 2.285 0 00-1.971-1.064 3.025 3.025 0 00-2.274 1.155zM106.056 109.791c.176-.24.351-.495.53-.759l.211-.306a577.355 577.355 0 00-5.501-2.548 5.687 5.687 0 00-.23 1.258c1.48.701 3.3 1.56 4.99 2.355zM107.265 110.358c.743.348 1.436.671 2.017.94.704.326 1.416.706 2.13 1.086.579.309 1.168.622 1.754.905a4.773 4.773 0 00.383-.676 2.967 2.967 0 00.159-.469q-2.802-1.467-5.704-2.85-.158.226-.316.459c-.138.202-.28.404-.423.605zM102.361 111.68c.877.623 1.977-.083 2.83-.898-1.388-.653-2.841-1.34-4.111-1.94a4.136 4.136 0 001.281 2.838z" fill="#b5c933"/><path d="M87.365 96.386q-1.993 4.418-4.022 8.892c-3.693 8.118-17.608 39.96-19.611 44.543l41.503 20.607c3.081-6.784 31.362-68.952 47.075-100.067-4.463-2.075-8.927-4.598-13.641-7.262-9.495-5.366-19.309-10.911-29.342-12.686-7.98 15.005-14.763 30.052-21.962 45.973zm52.62-28.545a.642.642 0 01.312.767c-1.53 4.441 3.704 6.994 3.928 7.1a.642.642 0 01.326.838l-.003.007-38.611 82.632a.636.636 0 01-.596.36c-5.293-.121-6.822 2.29-6.885 2.393a.66.66 0 01-.839.244L75.6 152.047a.648.648 0 01-.373-.726c1.15-5.044-3.662-8.286-3.868-8.421a.638.638 0 01-.244-.791l37.132-81.835a.623.623 0 01.377-.333.678.678 0 01.517.042c3.805 1.933 7.38-2.745 7.416-2.792a.648.648 0 01.599-.248c3.85.475 22.057 10.472 22.83 10.898z" fill="#b5c933"/><path d="M109.192 61.385L72.526 142.19c1.29 1.018 4.842 4.29 4.083 8.93l21.06 9.694c.756-.85 2.817-2.54 7.24-2.545l38.187-81.726c-2.179-1.243-5.168-4.072-4.199-7.856-5.336-2.92-18.027-9.625-21.52-10.42-.927 1.101-4.26 4.59-8.185 3.118zm4.803 33.57a15.55 15.55 0 017.463 20.6l-.088.19a15.772 15.772 0 01-20.754 7.842 15.137 15.137 0 01-7.993-8.79 15.918 15.918 0 0121.372-19.842z" fill="#cedd3e"/><path d="M105.564 172.298a1 1 0 01-.445-.105l-42.677-21.19a1 1 0 01-.472-1.296c.159-.362 15.887-36.364 19.86-45.111q2.031-4.474 4.02-8.886c7.264-16.09 14.126-31.287 22.224-46.475a.989.989 0 011.046-.515c10.488 1.731 20.589 7.44 30.358 12.96 4.9 2.77 9.527 5.385 14.131 7.481a1 1 0 01.478 1.362c-16.463 32.519-47.303 100.504-47.612 101.188a1.001 1.001 0 01-.576.53 1.016 1.016 0 01-.335.057zm-41.38-22.662l40.898 20.305c3.76-8.276 31.241-68.634 46.754-99.397-4.368-2.05-8.736-4.519-13.342-7.122-9.394-5.309-19.1-10.794-28.995-12.607-7.92 14.917-14.678 29.885-21.827 45.718q-1.993 4.415-4.02 8.889c-3.62 7.97-17.027 38.629-19.467 44.214z" fill="#3e4147"/><path d="M97.874 162.606a.965.965 0 01-.407-.088L75.45 152.383a1 1 0 01-.557-1.131c1.098-4.814-3.676-8.006-3.725-8.038a1 1 0 01-.362-1.25l37.132-81.833a1 1 0 011.364-.479c3.55 1.806 6.955-2.632 6.989-2.678a1.006 1.006 0 01.922-.392c3.843.474 21 9.863 22.943 10.933a1 1 0 01.463 1.202c-1.416 4.11 3.55 6.556 3.761 6.659a1 1 0 01.474 1.324l-38.61 82.632a.989.989 0 01-.93.577c-5.049-.111-6.513 2.121-6.573 2.217a1.03 1.03 0 01-.867.48zM76.989 150.89l20.62 9.492c.918-.928 3.021-2.417 7.093-2.476l37.943-81.203c-2.18-1.34-4.928-4.119-4.146-7.815-5.355-2.924-17.379-9.267-21.01-10.215-1.584 1.838-4.753 4.201-8.125 3.156l-36.405 80.23c1.458 1.187 4.63 4.328 4.03 8.83z" fill="#3e4147"/><path d="M106.963 125.347a15.53 15.53 0 01-14.6-10.233 16.29 16.29 0 0121.783-20.494 15.474 15.474 0 018.102 8.809 16.134 16.134 0 01-.571 12.464 16.318 16.318 0 01-14.714 9.454zm.681-30.152a14.316 14.316 0 00-12.897 8.302 14.15 14.15 0 00-.506 10.929 13.492 13.492 0 007.061 7.68 14.29 14.29 0 0019.068-17.99 13.532 13.532 0 00-12.726-8.92z" fill="#3e4147"/><path d="M110.042 116.44a4.24 4.24 0 01-2.279-.686.55.55 0 01.586-.93 3.026 3.026 0 002.593.38 4.61 4.61 0 002.709-2.549 5.18 5.18 0 00-.462-4.425 2.397 2.397 0 00-2.137-1.2c-1.655.019-2.531 1.308-3.46 2.672a12.614 12.614 0 01-1.24 1.627c-2.336 2.43-3.968 1.84-4.733 1.275-1.968-1.46-2.282-5.582-1.089-7.71a2.825 2.825 0 013.826-1.258.55.55 0 11-.411 1.02 1.737 1.737 0 00-2.456.775c-1.013 1.81-.58 5.277.785 6.29 1.052.776 2.366-.198 3.284-1.154a11.52 11.52 0 001.125-1.484c.998-1.466 2.129-3.127 4.357-3.152h.045a3.506 3.506 0 013.022 1.695 6.309 6.309 0 01.549 5.475 5.735 5.735 0 01-3.394 3.154 4.165 4.165 0 01-1.22.185z" fill="#3e4147"/><path d="M114.622 115.137a.559.559 0 01-.177-.03 25.078 25.078 0 01-3.597-1.683c-.693-.37-1.383-.737-2.066-1.054a1834.631 1834.631 0 01-11.227-5.29l.471-.992s7.625 3.621 11.218 5.284c.706.327 1.425.711 2.12 1.081a24.216 24.216 0 003.435 1.613.55.55 0 01-.177 1.07zM115.89 113.127a.547.547 0 01-.265-.067c-4.612-2.527-9.611-4.815-14.446-7.027l-2.593-1.19a.55.55 0 11.46-.997l2.59 1.187c4.853 2.221 9.87 4.517 14.518 7.062a.55.55 0 01-.265 1.032z" fill="#3e4147"/><path d="M106.012 120.935l-.114.158a14.542 14.542 0 00-2.598 10.587 13.807 13.807 0 005.593 9.286 14.47 14.47 0 0020.065-3.42 14.294 14.294 0 00-2.881-20.032 14.472 14.472 0 00-20.065 3.421zm18.507 7.877a6.455 6.455 0 01.22 4.099c.31.253.632.501.937.757a.64.64 0 01.128.86.523.523 0 01-.034.043.655.655 0 01-.917.058c-.198-.165-.408-.326-.607-.49-.066.116-.127.238-.202.344l-.023.033a6.043 6.043 0 01-.487.55c.137.087.274.18.41.26a.649.649 0 01.259.877.67.67 0 01-.034.052.647.647 0 01-.851.168 13.15 13.15 0 01-.769-.484 5.306 5.306 0 01-2.607 1.018 4.272 4.272 0 01-3.332-1.216.637.637 0 01-.035-.905.66.66 0 01.922 0 2.907 2.907 0 002.293.845 3.901 3.901 0 001.647-.55c-.453-.35-.9-.711-1.339-1.07-.606-.496-1.21-.99-1.817-1.43a542.34 542.34 0 01-2.04-1.494l-.015.012c-2.788 1.95-4.329 1.054-4.998.346a5.737 5.737 0 01-.973-4.777c-1.166-.863-1.963-1.455-1.963-1.455l.76-1.01 1.54 1.142a6.55 6.55 0 01.522-1.132l-1.375-.992a.642.642 0 01-.166-.89l.005-.007a.651.651 0 01.908-.123l1.41 1.018a2.9 2.9 0 013.835-.198.645.645 0 01.205.89.635.635 0 01-.9.168 1.63 1.63 0 00-2.033-.062 548.644 548.644 0 015.047 3.674 4.38 4.38 0 013.742-1.142 3.616 3.616 0 012.727 2.213z" fill="#b5c933"/><path d="M119.145 128.547q2.265 1.69 4.448 3.439a4.945 4.945 0 00-.266-2.704 2.285 2.285 0 00-1.729-1.426 3.025 3.025 0 00-2.453.691zM116.158 129.507c.22-.201.44-.417.668-.64.087-.087.177-.174.266-.26a576.932 576.932 0 00-4.903-3.568 5.688 5.688 0 00-.47 1.19c1.318.975 2.936 2.172 4.44 3.278zM117.234 130.298c.661.485 1.279.937 1.797 1.314a43.25 43.25 0 011.878 1.478 51.41 51.41 0 001.545 1.228 4.773 4.773 0 00.508-.589 2.965 2.965 0 00.246-.429q-2.464-1.983-5.042-3.903-.2.192-.4.39c-.174.171-.353.341-.532.51zM112.167 130.644c.739.78 1.956.302 2.951-.332-1.235-.91-2.528-1.866-3.657-2.7a4.136 4.136 0 00.706 3.032z" fill="#b5c933"/><path d="M100.423 112.73q-2.812 3.949-5.671 7.944c-5.198 7.247-25.026 35.784-27.88 39.892l36.717 28.267c4.339-6.058 44.143-61.558 65.594-89.033-3.976-2.902-7.866-6.243-11.973-9.77-8.273-7.107-16.825-14.45-26.323-18.138-10.74 13.172-20.314 26.617-30.464 40.839zm57.158-17.794a.642.642 0 01.157.814c-2.363 4.06 2.277 7.58 2.476 7.727a.642.642 0 01.157.885l-.004.006-53.909 73.572a.636.636 0 01-.654.237c-5.169-1.145-7.137.924-7.218 1.012a.66.66 0 01-.87.077l-19.633-14.213a.648.648 0 01-.225-.786c2.107-4.724-1.985-8.838-2.16-9.01a.638.638 0 01-.087-.825l52.303-73.076a.624.624 0 01.435-.254.678.678 0 01.498.142c3.358 2.635 7.772-1.261 7.817-1.3a.648.648 0 01.635-.128c3.685 1.213 19.607 14.552 20.282 15.12z" fill="#b5c933"/><path d="M128.625 82.63L76.98 154.785c1.068 1.249 3.918 5.148 2.272 9.552l18.78 13.596c.907-.687 3.256-1.945 7.596-1.092l53.317-72.765c-1.897-1.642-4.28-4.998-2.595-8.522-4.669-3.9-15.818-12.939-19.091-14.396-1.122.9-5.069 3.677-8.634 1.47zm-1.8 33.864a15.55 15.55 0 013.324 21.656c-.04.057-.081.113-.123.17a15.772 15.772 0 01-21.88 3.666 15.137 15.137 0 01-6.137-10.173 15.918 15.918 0 0124.815-15.32z" fill="#cedd3e"/><path d="M103.743 190.75a.998.998 0 01-.61-.208l-37.755-29.066a1 1 0 01-.211-1.363c.225-.325 22.64-32.592 28.233-40.402q2.857-3.989 5.66-7.927c10.25-14.379 19.932-27.96 30.826-41.29a1 1 0 011.125-.304c9.954 3.735 18.757 11.295 27.27 18.607 4.268 3.666 8.3 7.129 12.41 10.078a1 1 0 01.204 1.429c-22.46 28.708-65.902 89.418-66.338 90.028a1 1 0 01-.667.407 1.057 1.057 0 01-.147.011zm-36.39-30.278l36.18 27.854c5.295-7.39 43.963-61.27 65.15-88.438-3.888-2.859-7.693-6.127-11.706-9.575-8.186-7.03-16.644-14.295-26-17.993-10.666 13.1-20.202 26.477-30.289 40.625q-2.808 3.94-5.662 7.93c-5.096 7.115-24.195 34.592-27.673 39.597z" fill="#3e4147"/><path d="M98.08 179.751a.98.98 0 01-.577-.186L77.87 165.353a.999.999 0 01-.327-1.217c2-4.485-1.927-8.445-2.095-8.61a1.003 1.003 0 01-.112-1.296l52.303-73.074a1 1 0 011.43-.205c3.152 2.474 7.333-1.233 7.375-1.271a1.007 1.007 0 01.982-.207c3.678 1.21 18.687 13.75 20.386 15.177a1 1 0 01.221 1.269c-2.186 3.757 2.21 7.12 2.398 7.262a1.002 1.002 0 01.208 1.391l-53.908 73.572a1.002 1.002 0 01-1.023.385c-4.932-1.093-6.801.819-6.879.9a1.03 1.03 0 01-.748.322zm-18.41-15.564l18.387 13.311c1.08-.732 3.432-1.789 7.439-1.052l52.976-72.3c-1.88-1.737-4.036-4.997-2.552-8.47-4.686-3.908-15.25-12.463-18.628-14.098-1.91 1.495-5.477 3.198-8.584 1.522L77.43 154.74c1.2 1.446 3.703 5.145 2.24 9.446z" fill="#3e4147"/><path d="M117.107 145.244a15.544 15.544 0 01-15.414-13.17 16.29 16.29 0 0125.344-15.88 15.477 15.477 0 016.24 10.213 16.136 16.136 0 01-2.978 12.116 16.37 16.37 0 01-13.192 6.721zm.752-30.009a14.368 14.368 0 00-11.574 5.904 14.15 14.15 0 00-2.616 10.624 13.491 13.491 0 005.436 8.904 14.29 14.29 0 0022.196-13.95 13.491 13.491 0 00-5.437-8.904v.001a13.59 13.59 0 00-8.005-2.579z" fill="#3e4147"/><path d="M119.575 136.88a4.15 4.15 0 01-2.9-1.192.55.55 0 01.757-.798 3.002 3.002 0 002.47.875 4.607 4.607 0 003.151-1.975 5.177 5.177 0 00.405-4.43 2.425 2.425 0 00-1.863-1.592c-1.627-.3-2.737.793-3.913 1.95a12.456 12.456 0 01-1.533 1.355c-2.762 1.932-4.248 1.04-4.89.332-1.647-1.813-1.155-5.917.429-7.774a2.823 2.823 0 013.997-.491.55.55 0 01-.602.92 1.736 1.736 0 00-2.56.284c-1.344 1.578-1.593 5.063-.45 6.322.88.97 2.36.267 3.446-.493a11.57 11.57 0 001.392-1.238c1.263-1.246 2.696-2.657 4.884-2.248a3.507 3.507 0 012.682 2.258 6.311 6.311 0 01-.524 5.478 5.735 5.735 0 01-3.942 2.435 4.392 4.392 0 01-.436.023z" fill="#3e4147"/><path d="M123.63 136.424a.547.547 0 01-.274-.073 25.1 25.1 0 01-3.203-2.352c-.608-.496-1.213-.991-1.82-1.434-3.206-2.33-9.989-7.366-9.989-7.366l.656-.883s6.777 5.033 9.979 7.36c.625.455 1.246.963 1.87 1.471a24.277 24.277 0 003.056 2.25.55.55 0 01-.275 1.027zM125.264 134.698a.548.548 0 01-.352-.128c-4.043-3.38-8.512-6.6-12.833-9.713l-2.289-1.65a.55.55 0 11.645-.892l2.287 1.65c4.337 3.126 8.822 6.356 12.895 9.762a.55.55 0 01-.353.971z" fill="#3e4147"/></g></g></svg>
